<mxfile host="app.diagrams.net" modified="2020-08-26T09:26:11.852Z" agent="5.0 (Windows NT 10.0; Win64; x64) AppleWebKit/537.36 (KHTML, like Gecko) Chrome/84.0.4147.135 Safari/537.36" etag="03R0CzPiceFcK-AGWZj1" version="13.6.5" type="github">
  <diagram id="8Z8nMfBr1GJxTMtlL7jQ" name="Page-1">
    <mxGraphModel dx="920" dy="868" grid="1" gridSize="10" guides="1" tooltips="1" connect="1" arrows="1" fold="1" page="1" pageScale="1" pageWidth="827" pageHeight="1169" math="0" shadow="0">
      <root>
        <mxCell id="0" />
        <mxCell id="1" parent="0" />
        <mxCell id="TfYsERrLfIzuRKMn_TVy-3" value="On-Premise" style="outlineConnect=0;gradientColor=none;html=1;whiteSpace=wrap;fontSize=12;fontStyle=0;shape=mxgraph.aws4.group;grIcon=mxgraph.aws4.group_on_premise;strokeColor=#AAB7B8;fillColor=none;verticalAlign=top;align=left;spacingLeft=30;fontColor=#AAB7B8;dashed=0;" vertex="1" parent="1">
          <mxGeometry x="20" y="420" width="310" height="600" as="geometry" />
        </mxCell>
        <mxCell id="TfYsERrLfIzuRKMn_TVy-1" value="&lt;h1 style=&quot;font-size: 27px&quot;&gt;&lt;font style=&quot;font-size: 27px&quot;&gt;&lt;u style=&quot;font-size: 27px&quot;&gt;CloudEndure OS/APP移行仕組み図&lt;/u&gt;&lt;/font&gt;&lt;/h1&gt;" style="text;html=1;align=center;verticalAlign=middle;resizable=0;points=[];autosize=1;fontSize=27;" vertex="1" parent="1">
          <mxGeometry y="10" width="460" height="70" as="geometry" />
        </mxCell>
        <mxCell id="TfYsERrLfIzuRKMn_TVy-50" style="edgeStyle=none;rounded=0;orthogonalLoop=1;jettySize=auto;html=1;startArrow=none;startFill=0;strokeWidth=5;strokeColor=#FF0000;" edge="1" parent="1" source="TfYsERrLfIzuRKMn_TVy-2" target="TfYsERrLfIzuRKMn_TVy-29">
          <mxGeometry relative="1" as="geometry" />
        </mxCell>
        <mxCell id="TfYsERrLfIzuRKMn_TVy-2" value="Window Server2008 R2&lt;br&gt;" style="aspect=fixed;pointerEvents=1;shadow=0;dashed=0;html=1;strokeColor=none;labelPosition=center;verticalLabelPosition=bottom;verticalAlign=top;align=center;fillColor=#00188D;shape=mxgraph.mscae.enterprise.windows_server" vertex="1" parent="1">
          <mxGeometry x="250" y="530.25" width="70.2" height="90" as="geometry" />
        </mxCell>
        <mxCell id="TfYsERrLfIzuRKMn_TVy-12" style="edgeStyle=none;rounded=0;orthogonalLoop=1;jettySize=auto;html=1;strokeWidth=3;" edge="1" parent="1" source="TfYsERrLfIzuRKMn_TVy-4" target="TfYsERrLfIzuRKMn_TVy-2">
          <mxGeometry relative="1" as="geometry" />
        </mxCell>
        <mxCell id="TfYsERrLfIzuRKMn_TVy-4" value="OS(Windows Server2008)" style="outlineConnect=0;dashed=0;verticalLabelPosition=bottom;verticalAlign=top;align=center;html=1;shape=mxgraph.aws3.disk;fillColor=#7D7C7C;gradientColor=none;" vertex="1" parent="1">
          <mxGeometry x="78.5" y="543" width="61.5" height="64.5" as="geometry" />
        </mxCell>
        <mxCell id="TfYsERrLfIzuRKMn_TVy-18" style="edgeStyle=orthogonalEdgeStyle;rounded=0;orthogonalLoop=1;jettySize=auto;html=1;strokeWidth=3;exitX=1;exitY=0.5;exitDx=0;exitDy=0;exitPerimeter=0;" edge="1" parent="1" source="TfYsERrLfIzuRKMn_TVy-5">
          <mxGeometry relative="1" as="geometry">
            <mxPoint x="151.5" y="735.3" as="sourcePoint" />
            <mxPoint x="285.0999999999999" y="643.25" as="targetPoint" />
          </mxGeometry>
        </mxCell>
        <mxCell id="TfYsERrLfIzuRKMn_TVy-5" value="&lt;span style=&quot;color: rgb(51 , 51 , 51) ; font-size: 14px ; letter-spacing: 0.4128px&quot;&gt;APP(Biz∫ V1.4)&amp;nbsp;&lt;/span&gt;" style="outlineConnect=0;dashed=0;verticalLabelPosition=bottom;verticalAlign=top;align=center;html=1;shape=mxgraph.aws3.disk;fillColor=#7D7C7C;gradientColor=none;" vertex="1" parent="1">
          <mxGeometry x="80.75" y="700" width="59.25" height="64.5" as="geometry" />
        </mxCell>
        <mxCell id="TfYsERrLfIzuRKMn_TVy-19" style="edgeStyle=orthogonalEdgeStyle;rounded=0;orthogonalLoop=1;jettySize=auto;html=1;strokeWidth=3;" edge="1" parent="1" source="TfYsERrLfIzuRKMn_TVy-6">
          <mxGeometry relative="1" as="geometry">
            <mxPoint x="286" y="740" as="targetPoint" />
            <mxPoint x="136.75" y="840" as="sourcePoint" />
          </mxGeometry>
        </mxCell>
        <mxCell id="TfYsERrLfIzuRKMn_TVy-6" value="DISK「確認」" style="outlineConnect=0;fontColor=#232F3E;gradientColor=none;strokeColor=#232F3E;fillColor=#ffffff;dashed=0;verticalLabelPosition=bottom;verticalAlign=top;align=center;html=1;fontSize=12;fontStyle=0;aspect=fixed;shape=mxgraph.aws4.resourceIcon;resIcon=mxgraph.aws4.volume;" vertex="1" parent="1">
          <mxGeometry x="80.75" y="810" width="60" height="60" as="geometry" />
        </mxCell>
        <mxCell id="TfYsERrLfIzuRKMn_TVy-20" value="&lt;h1&gt;&lt;font style=&quot;font-size: 12px&quot;&gt;①オンプレミス環境確認&lt;/font&gt;&lt;/h1&gt;&lt;div&gt;ソフトウェア確認&lt;/div&gt;&lt;div&gt;&lt;font style=&quot;font-size: 12px&quot;&gt;1．OS(Windows Server2008)&lt;/font&gt;&lt;/div&gt;&lt;font style=&quot;font-size: 12px&quot;&gt;&lt;span style=&quot;color: rgb(51 , 51 , 51) ; letter-spacing: 0.4128px ; text-align: center&quot;&gt;2.&amp;nbsp; APP(Biz∫ V1.4&lt;/span&gt;&lt;span&gt;)&lt;br&gt;ハードウェア確認&lt;br&gt;3.HardDisk容量&lt;br&gt;&lt;/span&gt;&lt;/font&gt;&lt;span style=&quot;color: rgb(51 , 51 , 51) ; font-size: 14px ; letter-spacing: 0.4128px ; text-align: center&quot;&gt;&lt;br&gt;&lt;/span&gt;" style="text;html=1;strokeColor=none;fillColor=none;spacing=5;spacingTop=-20;whiteSpace=wrap;overflow=hidden;rounded=0;" vertex="1" parent="1">
          <mxGeometry x="40" y="880" width="310" height="140" as="geometry" />
        </mxCell>
        <mxCell id="TfYsERrLfIzuRKMn_TVy-27" value="AWS Cloud" style="outlineConnect=0;gradientColor=none;html=1;whiteSpace=wrap;fontSize=12;fontStyle=0;shape=mxgraph.aws4.group;grIcon=mxgraph.aws4.group_aws_cloud;strokeColor=#AAB7B8;fillColor=none;verticalAlign=top;align=left;spacingLeft=30;fontColor=#AAB7B8;dashed=0;" vertex="1" parent="1">
          <mxGeometry x="420" y="420" width="400" height="610" as="geometry" />
        </mxCell>
        <mxCell id="TfYsERrLfIzuRKMn_TVy-28" value="VPC" style="points=[[0,0],[0.25,0],[0.5,0],[0.75,0],[1,0],[1,0.25],[1,0.5],[1,0.75],[1,1],[0.75,1],[0.5,1],[0.25,1],[0,1],[0,0.75],[0,0.5],[0,0.25]];outlineConnect=0;gradientColor=none;html=1;whiteSpace=wrap;fontSize=12;fontStyle=0;shape=mxgraph.aws4.group;grIcon=mxgraph.aws4.group_vpc;strokeColor=#248814;fillColor=none;verticalAlign=top;align=left;spacingLeft=30;fontColor=#AAB7B8;dashed=0;" vertex="1" parent="1">
          <mxGeometry x="434" y="490" width="166" height="440" as="geometry" />
        </mxCell>
        <mxCell id="TfYsERrLfIzuRKMn_TVy-36" style="edgeStyle=orthogonalEdgeStyle;rounded=0;orthogonalLoop=1;jettySize=auto;html=1;strokeWidth=3;" edge="1" parent="1" source="TfYsERrLfIzuRKMn_TVy-29" target="TfYsERrLfIzuRKMn_TVy-33">
          <mxGeometry relative="1" as="geometry" />
        </mxCell>
        <mxCell id="TfYsERrLfIzuRKMn_TVy-69" style="edgeStyle=elbowEdgeStyle;rounded=0;orthogonalLoop=1;jettySize=auto;html=1;startArrow=none;startFill=0;strokeColor=#000000;strokeWidth=3;fontSize=27;" edge="1" parent="1" source="TfYsERrLfIzuRKMn_TVy-29" target="TfYsERrLfIzuRKMn_TVy-52">
          <mxGeometry relative="1" as="geometry" />
        </mxCell>
        <mxCell id="TfYsERrLfIzuRKMn_TVy-29" value="レプリケーションサーバー&lt;br&gt;「WindowServer2008EC2」" style="outlineConnect=0;fontColor=#232F3E;gradientColor=none;fillColor=#D86613;strokeColor=none;dashed=0;verticalLabelPosition=bottom;verticalAlign=top;align=center;html=1;fontSize=12;fontStyle=0;aspect=fixed;pointerEvents=1;shape=mxgraph.aws4.instances;" vertex="1" parent="1">
          <mxGeometry x="490" y="551.25" width="48" height="48" as="geometry" />
        </mxCell>
        <mxCell id="TfYsERrLfIzuRKMn_TVy-39" style="edgeStyle=orthogonalEdgeStyle;rounded=0;orthogonalLoop=1;jettySize=auto;html=1;strokeWidth=3;" edge="1" parent="1" source="TfYsERrLfIzuRKMn_TVy-33" target="TfYsERrLfIzuRKMn_TVy-38">
          <mxGeometry relative="1" as="geometry" />
        </mxCell>
        <mxCell id="TfYsERrLfIzuRKMn_TVy-33" value="EBS Volumes「拡張可能」" style="outlineConnect=0;dashed=0;verticalLabelPosition=bottom;verticalAlign=top;align=center;html=1;shape=mxgraph.aws3.volume;fillColor=#E05243;gradientColor=none;" vertex="1" parent="1">
          <mxGeometry x="487.75" y="682.5" width="52.5" height="75" as="geometry" />
        </mxCell>
        <mxCell id="TfYsERrLfIzuRKMn_TVy-43" style="rounded=0;orthogonalLoop=1;jettySize=auto;html=1;strokeWidth=3;startArrow=classicThin;startFill=1;" edge="1" parent="1" source="TfYsERrLfIzuRKMn_TVy-37" target="TfYsERrLfIzuRKMn_TVy-38">
          <mxGeometry relative="1" as="geometry" />
        </mxCell>
        <mxCell id="TfYsERrLfIzuRKMn_TVy-37" value="コンバーターインスタンス" style="outlineConnect=0;fontColor=#232F3E;gradientColor=none;fillColor=#D86613;strokeColor=none;dashed=0;verticalLabelPosition=bottom;verticalAlign=top;align=center;html=1;fontSize=12;fontStyle=0;aspect=fixed;pointerEvents=1;shape=mxgraph.aws4.instance2;" vertex="1" parent="1">
          <mxGeometry x="480" y="875" width="48" height="48" as="geometry" />
        </mxCell>
        <mxCell id="TfYsERrLfIzuRKMn_TVy-47" style="edgeStyle=none;rounded=0;orthogonalLoop=1;jettySize=auto;html=1;entryX=0.5;entryY=1;entryDx=0;entryDy=0;entryPerimeter=0;startArrow=none;startFill=0;strokeWidth=3;" edge="1" parent="1" source="TfYsERrLfIzuRKMn_TVy-38" target="TfYsERrLfIzuRKMn_TVy-44">
          <mxGeometry relative="1" as="geometry" />
        </mxCell>
        <mxCell id="TfYsERrLfIzuRKMn_TVy-38" value="EBS Snapshot" style="outlineConnect=0;fontColor=#232F3E;gradientColor=none;fillColor=#277116;strokeColor=none;dashed=0;verticalLabelPosition=bottom;verticalAlign=top;align=center;html=1;fontSize=12;fontStyle=0;aspect=fixed;pointerEvents=1;shape=mxgraph.aws4.snapshot;" vertex="1" parent="1">
          <mxGeometry x="592" y="860" width="56" height="78" as="geometry" />
        </mxCell>
        <mxCell id="TfYsERrLfIzuRKMn_TVy-41" value="VPC" style="points=[[0,0],[0.25,0],[0.5,0],[0.75,0],[1,0],[1,0.25],[1,0.5],[1,0.75],[1,1],[0.75,1],[0.5,1],[0.25,1],[0,1],[0,0.75],[0,0.5],[0,0.25]];outlineConnect=0;gradientColor=none;html=1;whiteSpace=wrap;fontSize=12;fontStyle=0;shape=mxgraph.aws4.group;grIcon=mxgraph.aws4.group_vpc;strokeColor=#248814;fillColor=none;verticalAlign=top;align=left;spacingLeft=30;fontColor=#AAB7B8;dashed=0;" vertex="1" parent="1">
          <mxGeometry x="640" y="490" width="170" height="440" as="geometry" />
        </mxCell>
        <mxCell id="TfYsERrLfIzuRKMn_TVy-46" style="edgeStyle=none;rounded=0;orthogonalLoop=1;jettySize=auto;html=1;startArrow=none;startFill=0;strokeWidth=3;" edge="1" parent="1" source="TfYsERrLfIzuRKMn_TVy-42" target="TfYsERrLfIzuRKMn_TVy-44">
          <mxGeometry relative="1" as="geometry" />
        </mxCell>
        <mxCell id="TfYsERrLfIzuRKMn_TVy-42" value="ターゲット&lt;br&gt;EC2インスタンス" style="outlineConnect=0;fontColor=#232F3E;gradientColor=none;fillColor=#D86613;strokeColor=none;dashed=0;verticalLabelPosition=bottom;verticalAlign=top;align=center;html=1;fontSize=12;fontStyle=0;aspect=fixed;pointerEvents=1;shape=mxgraph.aws4.instance2;" vertex="1" parent="1">
          <mxGeometry x="694.75" y="559.75" width="60.5" height="60.5" as="geometry" />
        </mxCell>
        <mxCell id="TfYsERrLfIzuRKMn_TVy-44" value="EBS Volumes「拡張可能」" style="outlineConnect=0;dashed=0;verticalLabelPosition=bottom;verticalAlign=top;align=center;html=1;shape=mxgraph.aws3.volume;fillColor=#E05243;gradientColor=none;" vertex="1" parent="1">
          <mxGeometry x="698.75" y="735" width="52.5" height="75" as="geometry" />
        </mxCell>
        <mxCell id="TfYsERrLfIzuRKMn_TVy-49" value="&lt;p style=&quot;line-height: 100%&quot;&gt;&lt;/p&gt;&lt;h1&gt;&lt;span style=&quot;font-size: 12px&quot;&gt;②環境構築&lt;/span&gt;&lt;br&gt;&lt;/h1&gt;&lt;div&gt;1.VPC&lt;/div&gt;&lt;div&gt;2.EC2&lt;/div&gt;&lt;div&gt;3.EBS&lt;/div&gt;&lt;div&gt;4.EBS Snapshot&lt;/div&gt;&lt;p&gt;&lt;/p&gt;" style="text;html=1;strokeColor=none;fillColor=none;spacing=5;spacingTop=-20;whiteSpace=wrap;overflow=hidden;rounded=0;" vertex="1" parent="1">
          <mxGeometry x="434" y="940" width="180" height="110" as="geometry" />
        </mxCell>
        <mxCell id="TfYsERrLfIzuRKMn_TVy-51" value="&lt;font color=&quot;#ff0000&quot;&gt;&lt;br&gt;&lt;b&gt;③VPN環境構築&lt;/b&gt;&lt;br&gt;インターネット「VPN or AWS Site-to-Site VPN」&lt;br&gt;「HULFT or AWS Direct Connect 」&lt;br&gt;TCP　Port:1500&lt;br&gt;データ複製（暗号化）&lt;br&gt;&lt;br&gt;&lt;/font&gt;" style="text;html=1;strokeColor=none;fillColor=none;align=center;verticalAlign=middle;whiteSpace=wrap;rounded=0;" vertex="1" parent="1">
          <mxGeometry x="310" y="670" width="150" height="60" as="geometry" />
        </mxCell>
        <mxCell id="TfYsERrLfIzuRKMn_TVy-73" style="edgeStyle=elbowEdgeStyle;rounded=0;orthogonalLoop=1;jettySize=auto;elbow=vertical;html=1;startArrow=none;startFill=0;strokeWidth=3;fontSize=27;strokeColor=#7F00FF;" edge="1" parent="1" source="TfYsERrLfIzuRKMn_TVy-52" target="TfYsERrLfIzuRKMn_TVy-27">
          <mxGeometry relative="1" as="geometry">
            <mxPoint x="520" y="108" as="sourcePoint" />
            <Array as="points">
              <mxPoint x="630" y="260" />
              <mxPoint x="580" y="90" />
            </Array>
          </mxGeometry>
        </mxCell>
        <mxCell id="TfYsERrLfIzuRKMn_TVy-74" value="&lt;font color=&quot;#6600cc&quot; style=&quot;font-size: 18px&quot;&gt;AWS API&lt;/font&gt;" style="edgeLabel;html=1;align=center;verticalAlign=middle;resizable=0;points=[];fontSize=27;" vertex="1" connectable="0" parent="TfYsERrLfIzuRKMn_TVy-73">
          <mxGeometry x="-0.2148" y="-40" relative="1" as="geometry">
            <mxPoint x="-46" y="-60" as="offset" />
          </mxGeometry>
        </mxCell>
        <mxCell id="TfYsERrLfIzuRKMn_TVy-52" value="CLoudEndure User Console" style="outlineConnect=0;fontColor=#232F3E;gradientColor=#4AB29A;gradientDirection=north;fillColor=#116D5B;strokeColor=#ffffff;dashed=0;verticalLabelPosition=bottom;verticalAlign=top;align=center;html=1;fontSize=12;fontStyle=0;aspect=fixed;shape=mxgraph.aws4.resourceIcon;resIcon=mxgraph.aws4.cloudendure_migration;" vertex="1" parent="1">
          <mxGeometry x="460" y="230" width="60" height="60" as="geometry" />
        </mxCell>
        <mxCell id="TfYsERrLfIzuRKMn_TVy-67" style="edgeStyle=elbowEdgeStyle;rounded=0;orthogonalLoop=1;jettySize=auto;html=1;startArrow=none;startFill=0;strokeColor=#000000;strokeWidth=3;fontSize=27;" edge="1" parent="1" source="TfYsERrLfIzuRKMn_TVy-55" target="TfYsERrLfIzuRKMn_TVy-52">
          <mxGeometry relative="1" as="geometry">
            <mxPoint x="265" y="260" as="targetPoint" />
            <Array as="points">
              <mxPoint x="270" y="360" />
              <mxPoint x="260" y="410" />
            </Array>
          </mxGeometry>
        </mxCell>
        <mxCell id="TfYsERrLfIzuRKMn_TVy-55" value="&lt;font size=&quot;1&quot;&gt;WebProxy(オプション)&lt;/font&gt;" style="rounded=1;whiteSpace=wrap;html=1;fontSize=27;" vertex="1" parent="1">
          <mxGeometry x="210.2" y="430" width="110" height="25" as="geometry" />
        </mxCell>
        <mxCell id="TfYsERrLfIzuRKMn_TVy-66" style="edgeStyle=none;rounded=0;orthogonalLoop=1;jettySize=auto;html=1;entryX=0.562;entryY=0.8;entryDx=0;entryDy=0;entryPerimeter=0;startArrow=none;startFill=0;strokeColor=#000000;strokeWidth=3;fontSize=27;" edge="1" parent="1" source="TfYsERrLfIzuRKMn_TVy-56" target="TfYsERrLfIzuRKMn_TVy-55">
          <mxGeometry relative="1" as="geometry" />
        </mxCell>
        <mxCell id="TfYsERrLfIzuRKMn_TVy-56" value="CloudEndure Agent" style="outlineConnect=0;fontColor=#232F3E;gradientColor=none;fillColor=#116D5B;strokeColor=none;dashed=0;verticalLabelPosition=bottom;verticalAlign=top;align=center;html=1;fontSize=12;fontStyle=0;aspect=fixed;shape=mxgraph.aws4.agent2;direction=south;" vertex="1" parent="1">
          <mxGeometry x="257.5" y="480" width="29" height="29" as="geometry" />
        </mxCell>
        <mxCell id="TfYsERrLfIzuRKMn_TVy-68" value="&lt;font style=&quot;font-size: 14px&quot;&gt;TCP Port:443&lt;/font&gt;" style="text;html=1;strokeColor=none;fillColor=none;align=center;verticalAlign=middle;whiteSpace=wrap;rounded=0;fontSize=27;" vertex="1" parent="1">
          <mxGeometry x="286.5" y="230" width="110" height="20" as="geometry" />
        </mxCell>
        <mxCell id="TfYsERrLfIzuRKMn_TVy-71" value="&lt;font style=&quot;font-size: 14px&quot;&gt;TCP Port:443&lt;/font&gt;" style="text;html=1;strokeColor=none;fillColor=none;align=center;verticalAlign=middle;whiteSpace=wrap;rounded=0;fontSize=27;" vertex="1" parent="1">
          <mxGeometry x="396.5" y="350" width="100" height="30" as="geometry" />
        </mxCell>
        <mxCell id="TfYsERrLfIzuRKMn_TVy-80" value="&lt;h1&gt;&lt;span style=&quot;font-size: 12px&quot;&gt;⑤CloudEndure&lt;/span&gt;&lt;/h1&gt;&lt;div&gt;CloudEndureアカウント取得&lt;/div&gt;&lt;div&gt;CloudEndureプロジェクト&lt;/div&gt;&lt;div&gt;&lt;span style=&quot;color: rgb(51 , 51 , 51) ; letter-spacing: 0.4128px ; text-align: center&quot;&gt;CloudEndureクレデンシャル設定&lt;/span&gt;&lt;/div&gt;&lt;font style=&quot;font-size: 12px&quot;&gt;&lt;span&gt;CloudEndureユーザー管理&lt;br&gt;移行元サーバ準備&lt;br&gt;CloudEndureAgentインストール&lt;br&gt;CloudEndureAgentインストールオプション&lt;br&gt;準備時のベストプラクティス&lt;br&gt;&lt;/span&gt;&lt;/font&gt;&lt;span style=&quot;color: rgb(51 , 51 , 51) ; font-size: 14px ; letter-spacing: 0.4128px ; text-align: center&quot;&gt;&lt;br&gt;&lt;/span&gt;" style="text;html=1;strokeColor=none;fillColor=none;spacing=5;spacingTop=-20;whiteSpace=wrap;overflow=hidden;rounded=0;" vertex="1" parent="1">
          <mxGeometry x="18.5" y="230" width="311.5" height="170" as="geometry" />
        </mxCell>
        <mxCell id="TfYsERrLfIzuRKMn_TVy-81" value="&lt;h1&gt;&lt;font style=&quot;font-size: 12px&quot;&gt;⑥Poc&lt;/font&gt;&lt;/h1&gt;&lt;div&gt;&lt;/div&gt;&lt;font style=&quot;font-size: 12px&quot;&gt;6.1レプリケーション&lt;br&gt;6.2レプリケーションサーバー&lt;br&gt;6.3レプリケーション時の帯域制御&lt;br&gt;&lt;/font&gt;&lt;span style=&quot;text-align: center&quot;&gt;&lt;font color=&quot;#333333&quot; style=&quot;font-size: 12px&quot;&gt;&lt;span style=&quot;letter-spacing: 0.4128px&quot;&gt;6.4レプリケーション実行時の Tips&lt;br&gt;&lt;/span&gt;&lt;/font&gt;6.5レプリケーションのベストプラクティス&lt;br&gt;6.6移行先サーバーの設定&lt;br&gt;6.7移行のテスト&lt;br&gt;6.8移行テスト後のインスタンスへの接続&lt;br&gt;6.9Poc時のベストプラクティス&lt;br&gt;&lt;/span&gt;" style="text;html=1;strokeColor=none;fillColor=none;spacing=5;spacingTop=-20;whiteSpace=wrap;overflow=hidden;rounded=0;" vertex="1" parent="1">
          <mxGeometry x="540.25" y="300" width="299.75" height="180" as="geometry" />
        </mxCell>
        <mxCell id="TfYsERrLfIzuRKMn_TVy-82" value="&lt;h1&gt;&lt;br&gt;&lt;/h1&gt;&lt;b&gt;⑦カットオーバー&lt;/b&gt;&lt;div&gt;7.1移行の実施&lt;/div&gt;&lt;div&gt;7.2カットオーバー時の動作&lt;/div&gt;&lt;div&gt;7.3移行の実施時のベストプラクティス&lt;/div&gt;&lt;font style=&quot;font-size: 12px&quot;&gt;&lt;span&gt;&lt;br&gt;&lt;/span&gt;&lt;/font&gt;&lt;span style=&quot;color: rgb(51 , 51 , 51) ; font-size: 14px ; letter-spacing: 0.4128px ; text-align: center&quot;&gt;&lt;br&gt;&lt;/span&gt;" style="text;html=1;strokeColor=none;fillColor=none;spacing=5;spacingTop=-20;whiteSpace=wrap;overflow=hidden;rounded=0;" vertex="1" parent="1">
          <mxGeometry x="600" y="930" width="310" height="140" as="geometry" />
        </mxCell>
      </root>
    </mxGraphModel>
  </diagram>
</mxfile>
